<svg id="SvgjsSvg1008" xmlns="http://www.w3.org/2000/svg" version="1.1" xmlns:xlink="http://www.w3.org/1999/xlink" xmlns:svgjs="http://svgjs.com/svgjs" width="35" height="25" viewBox="0 0 35 25"><title>preview</title><desc>Created with Avocode.</desc><defs id="SvgjsDefs1009"></defs><path id="SvgjsPath1010" d="M806.325 1108.82C816.325 1108.82 823.8050000000001 1120.48 823.8050000000001 1120.48C823.8050000000001 1120.48 816.2620000000001 1132.14 806.325 1132.14C795.6990000000001 1132.14 789.162 1120.48 789.162 1120.48C789.162 1120.48 795.7620000000001 1108.82 806.325 1108.82ZM801.179 1120.5C801.179 1123.39 803.525 1125.73 806.418 1125.73C809.311 1125.73 811.657 1123.39 811.657 1120.5C811.657 1117.6 809.311 1115.26 806.418 1115.26C803.525 1115.26 801.179 1117.6 801.179 1120.5ZM806.45 1117.88C807.8900000000001 1117.88 809.057 1119.0400000000002 809.057 1120.48C809.057 1121.92 807.89 1123.09 806.45 1123.09C805.01 1123.09 803.8430000000001 1121.9199999999998 803.8430000000001 1120.48C803.8430000000001 1119.04 805.0100000000001 1117.88 806.45 1117.88Z " fill="#ffffff" fill-opacity="1" transform="matrix(1,0,0,1,-789,-1108)"></path></svg>