<svg id="SvgjsSvg1011" xmlns="http://www.w3.org/2000/svg" version="1.1" xmlns:xlink="http://www.w3.org/1999/xlink" xmlns:svgjs="http://svgjs.com/svgjs" width="20" height="26" viewBox="0 0 20 26"><title>link</title><desc>Created with Avocode.</desc><defs id="SvgjsDefs1012"></defs><path id="SvgjsPath1013" d="M878.361 1113.81L874.861 1119.87C874.309 1120.83 873.086 1121.1499999999999 872.129 1120.6L871.263 1120.1L872.263 1118.37C872.741 1118.6499999999999 873.3530000000001 1118.4799999999998 873.629 1118L876.129 1113.67C876.405 1113.2 876.241 1112.5800000000002 875.763 1112.3100000000002L872.299 1110.3100000000002C871.821 1110.0300000000002 871.209 1110.2000000000003 870.933 1110.67L868.433 1115C868.157 1115.48 868.321 1116.09 868.799 1116.37L867.799 1118.1L866.933 1117.6C865.976 1117.05 865.649 1115.83 866.201 1114.87L869.701 1108.81C870.253 1107.85 871.476 1107.52 872.433 1108.08L877.629 1111.08C878.586 1111.6299999999999 878.913 1112.85 878.361 1113.81ZM866.531 1124.3C866.053 1124.02 865.8889999999999 1123.4099999999999 866.165 1122.93L870.165 1116C870.4409999999999 1115.53 871.053 1115.36 871.531 1115.64C872.0089999999999 1115.91 872.173 1116.5300000000002 871.8969999999999 1117L867.8969999999999 1123.93C867.621 1124.41 867.0089999999999 1124.5700000000002 866.531 1124.3ZM866.799 1119.83L865.933 1119.33C864.976 1118.78 863.753 1119.11 863.201 1120.07L859.701 1126.1299999999999C859.149 1127.09 859.476 1128.31 860.433 1128.86L865.629 1131.86C866.586 1132.4099999999999 867.809 1132.09 868.361 1131.1299999999999L871.861 1125.07C872.413 1124.11 872.086 1122.8899999999999 871.129 1122.33L870.263 1121.83L869.263 1123.57C869.741 1123.84 869.9050000000001 1124.45 869.629 1124.9299999999998L867.129 1129.2599999999998C866.8530000000001 1129.7399999999998 866.241 1129.8999999999999 865.763 1129.6299999999997L862.299 1127.6299999999997C861.821 1127.3499999999997 861.6569999999999 1126.7399999999996 861.933 1126.2599999999998L864.433 1121.9299999999998C864.709 1121.4499999999998 865.321 1121.2899999999997 865.799 1121.57Z " fill="#ffffff" fill-opacity="1" transform="matrix(1,0,0,1,-859,-1107)"></path></svg>