<svg xmlns="http://www.w3.org/2000/svg" width="896" height="1024" viewBox="0 0 896 1024"><path d="M64 746.667c-1.707-83.558 3.38-168.055-10.103-250.83-4.403-35.55-58.027-26.282-50.347-70.245C-2.645 355.038 1.024 284.075 0 213.334c84.82-1.536 169.847 1.604 254.464-4.54 20.787-20.65-56.66-34.68-65.707-59.733-37.837-33.706-47.275-104.788 1.297-133.53C239.58-16.69 301.84 5.975 341.4 43.214c37.24 32.495 69.053 70.57 103.527 105.9 43.383-39.937 79.582-89.976 133.29-116.6 44.835-14.37 95.71-9.387 139.777 5.29 32.256 24.526 34.697 82.518 9.967 113.546-12.22 24.49-81.885 35.412-68.914 57.582 78.746 5.973 157.986 2.833 236.954 4.403-1.792 76.425 4.898 153.55-6.656 229.342-8.158 32.188-58.06 26.965-50.483 70.997-11.604 136.243-5.29 273.27-6.86 409.873V1024H64V746.67zm298.667-21.334v-256h-256v512h256v-256zm149.333 0v-256H384v512h128v-256zm277.333 0v-256h-256v512h256v-256zm-426.666-384V256h-320v170.667h320v-85.333zm149.333 0c6.997-43.52-7.117-100.608-64-85.333-61.44-16.11-69.973 48.265-64 92.672-10.99 49.562 20.378 94.037 74.684 77.926 56.218 10.342 54.784-46.967 53.316-85.265zm341.333 0V256h-320v170.667h320v-85.333zm-448-147.695c-10.445-51.883-56.08-88.405-95.164-120.27-26.625-32.596-114.092-40.532-103.288 17.614 34.884 57.856 105.643 76.97 161.86 107.588 11.947 4.267 43.47 25.36 36.59-4.95zm261.342-47.58c58.027-16.266 44.544-93.185-17.237-84.276-58.487-4.437-103.253 42.53-140.493 81.237-40.875 32.682.63 51.796 34.03 39.713 42.6-6.263 85.078-17.374 123.7-36.693z"/></svg>