<svg xmlns="http://www.w3.org/2000/svg" width="1061" height="1024" viewBox="0 0 1061 1024"><path d="M317.19 1003.332c-62.815-25.075-57.626-14.298-101.386-210.585-36.098-161.92-44.432-179.48-104.247-219.66-96.83-65.044-101.422-198.453-9.58-278.308 24.823-21.586 50.324-62.877 56.668-91.76s39.81-77.34 74.37-107.684C294.01 41.78 301.46 40.173 487.704 40.4c216.358.262 328.242 36.426 365.47 118.13 11.594 25.448 36.557 46.27 55.47 46.27s52.608 19.39 74.873 43.09c83.843 89.247 31.85 329.274-71.324 329.274-36.765 0-40.127 7.56-74.514 167.564-51.312 238.756-51.483 239.108-126.056 259.82-86.502 24.023-333.11 23.263-394.434-1.216zm418.667-58.65c14.438-20.392 75.768-367.518 64.933-367.518-7.75 0-53.474 17.42-101.606 38.71-88.79 39.277-237.332 42.066-396.64 7.45-33.28-7.233-60.548-5.915-60.595 2.927-.05 8.843 14.183 84.934 31.625 169.092l31.713 153.014 84.737 11.36c46.605 6.248 92.527 13.297 102.047 15.665 18.39 4.575 238.428-23.133 243.784-30.697zm-251.784-3.323c0-5.748-2.095-15.61-4.655-21.914s27.484-14.347 66.765-17.872c128.792-11.557 140.66-20.895 153.957-121.126 6.742-50.826 20.855-97.724 31.362-104.218 33.792-20.885-1.418 184.648-37.535 219.104-30.97 29.547-209.894 68.78-209.894 46.024zm212.95-385.38c40.324-19.07 109.15-34.67 152.946-34.67 91.173 0 121.9-35.89 121.9-142.395 0-76.988-26.533-112.132-96.21-127.436-29.612-6.505-56.708-26.998-61.89-46.808-21.483-82.156-222.044-145.53-276.402-87.34-18.532 19.84-34.198 18.353-86.253-8.187-99.302-50.627-213.327 6.462-238.09 119.206-6.877 31.31-37.114 77.636-67.195 102.947-44.954 37.826-53.69 58.01-49.06 113.362 6.26 74.88 24.327 83.954 275.593 138.406 137.22 29.737 218.915 22.92 324.66-27.086zm-417.75-109.144c0-24.824 12.412-37.236 37.236-37.236s37.235 12.412 37.235 37.236c0 24.824-12.412 37.236-37.236 37.236s-37.237-12.412-37.237-37.236zm189.905-40.96c-52.224-52.224-12.88-145.222 61.44-145.222s113.664 92.998 61.44 145.222c-28.72 28.72-94.16 28.72-122.88 0zm107.986-61.44c0-37.236-9.31-46.545-46.545-46.545s-46.546 9.31-46.546 46.546 9.31 46.545 46.545 46.545 46.544-9.308 46.544-46.544zm100.324-17.312c-18.538-48.308 7.445-88.235 53.192-81.74 30.77 4.37 41.974 18.385 41.974 52.507s-11.203 48.137-41.974 52.507c-25.177 3.575-46.463-5.738-53.192-23.273zm67.24-29.233c0-10.24-8.38-18.617-18.62-18.617s-18.617 8.378-18.617 18.618c0 10.24 8.38 18.62 18.62 18.62s18.617-8.38 18.617-18.62zm-484.073-46.545c0-37.236 9.31-46.545 46.545-46.545s46.545 9.31 46.545 46.545c0 37.236-9.31 46.545-46.545 46.545s-46.545-9.31-46.545-46.545z"/></svg>