<svg xmlns="http://www.w3.org/2000/svg" width="868" height="1024" viewBox="0 0 868 1024"><path d="M269.017 960.15C197.425 942.463 122.937 927.6 58.644 890 27.662 860.46 48.8 809.455 46.704 770.94c10.548-128.026 42.22-265.903 139.292-357.13 18.765-16.277 38.768-31.052 58.156-46.573-33.29-55.036-75.083-111.537-68.815-179.514 5.046-49.264 18.73-101.78 52.566-139.305 39.54-31.95 82 12.048 114.628 32.708 69.6 38.323 161.51 26.51 220.43-26.42 36.172-34.207 89.247-9.325 98.165 36.56 16.34 54.635 43.578 116.038 16.643 171.864-13.954 30.516-29.534 60.26-44.276 90.4 68.495 71.18 144.577 142.7 170.69 241.508 27.07 97.08 17.23 198.71 20.226 298.24-89.586 32.27-178.705 72.166-275.666 73.755-93.098 3.397-187.053 2.838-279.724-6.884zm206.825-44.625c14.257-35.8 28.51 33.864 56.787 7.083 48.777-8.468 29.104-78.808 79.798-82.214 17.716 14.145-20.51 81.05 35.11 58.36 48.776-12.937 29.44-77.168 33.125-114.94.19-43.92-8.535-90.305 5.105-132.678 22.957 26.252 18.22 73.91 24.65 109.26 8.524 35.705-5.687 90.952 24.37 113.206 51.444-21.288 51.043-86.113 48.74-132.95-6.296-88.474-35.006-176.935-93.81-244.71-29.87-33.633-63.496-73.392-110.67-79.4-58.207-9.06-11.718 54.366-45.918 78.572-48.795 27.298-39.97-76.468-87.56-77.072-35.18 3.284-37.273 45.784-47.08 72.518-5.195 4.276-13.086-24.31-19.353-33.087-13.895-38.7-61.734-52.79-96.782-34.146C216.16 455.654 168.04 518.01 136.94 583.402c-32.78 80.795-40.52 169.283-44.878 255.554.74 54.535 73.482 21.34 62.594-21.377 9.63-73.16 12.04-150.906 48.856-216.77 31.108-22.49 11.227 48.346 12.064 66.418-6.308 68.976-27.498 138.285-16.522 207.733 11.314 49.96 74.123 21.776 61.67-21.825-3.612-25.027 2.293-74.92 26.2-29.75 33.377 22.033 8.957 116.047 65.27 88.875 22.174-12.882 17.662-93.842 38.333-35.787 10.7 31.544 58.868 89.435 85.314 39.05zm40.497-546.338c-48.193-3.454-97.402-5.424-145.17 2.643 48.004 7.284 98.803 3.786 147.85 2.605 18.9-.973 13.25-4.005-2.68-5.248zm66.824-52.707c57.453-44.098 57.26-126.777 38.912-190.435-20.642-45.215-72.423 9.643-103.81 14.715-71.394 20.19-155.427 17.814-218.707-24.17-20.004-30.928-52.47-25.843-56.137 12.418-21.02 48.56-26.306 110.846 12.583 152.29 28.6 42.53 82.215 48.29 129.078 47.833 65.772-.416 133.974 3.523 198.08-12.65z"/></svg>