<svg xmlns="http://www.w3.org/2000/svg" width="914" height="1024" viewBox="0 0 914 1024"><path d="M110.498 970.014c-29.63-32.097-30.468-79.956-39.668-120.88-12.744-87.59-25.674-175.57-29.642-264.024-1.682-45.196 18.57-102.53 70.133-108.31 51.782 10.628 55.708-45.507 53.33-82.766 1.5-49.334-1.854-100.766 13.916-148.108 45.37-38.068 99.617-65.262 153.778-88.806 83.358-31.696 184.927-47.33 264.51 2.618 31.636 33.42 78.7 36.32 114.988 58.364 45.13 53.37 35.768 128.996 38.482 194.156-6.222 39.43 16.12 72.78 58.185 65.606 51.804 9.972 66.89 70.023 64.636 115.465-7.745 103.106-19.436 206.344-39.63 307.838-3.362 45.13-31.377 85.54-81.172 76.865-190.395 12.17-381.658 11.663-572.132 1.39-23.205-2.407-47.395-2.05-69.715-9.407zM768 914.286c30.915-34.288 44.6-85.17 32.138-129.922-26.875-31.02-79.15-14.444-110.65 2.755-30.773 28.428-66.09 53.675-110.555 51.363-85.48 3.24-171.728 6.154-256.83-3.805-46.235-2.543-65.632-53.806-110.136-61.087-33.805-6.478-102.948-20.006-101.91 32.55-5.485 59.667 30.627 130.967 95.786 136.86 108.003 12.34 217.12 6.36 325.622 7.706 68.136-2.63 138.41 4.04 204.7-14.844 12.184-4.492 22.838-12.317 31.836-21.575zM630.9 797.66c56.22-28.124-13.933-65.113-28.565-96.723-27.81-32.048-80.766-21.862-119.573-27.532-51.673 1.02-105.81-5.888-155.34 11.532-31.927 20.167-58.478 74.097-27.684 105.742 31.328 27.876 77.56 26.294 117.013 31.334 69.7 2.424 143.2 5.62 208.95-21.065l5.2-3.29zM237.713 694.856C266.247 666.12 287.9 619.02 261.61 581.84c-20.942-33.04-52.84-71.003-95.514-69.08-44.9 14.092-80.782 55.42-92.257 100.644-2.02 46.545 34.735 85.888 71.772 109.388 32.807 22.616 68.24-6.173 92.1-27.935zm566.857 0c28.534-28.737 50.186-75.836 23.896-113.018-20.94-33.04-52.84-71.003-95.513-69.08-44.9 14.092-80.782 55.42-92.257 100.644-2.02 46.545 34.736 85.888 71.773 109.388 32.806 22.616 68.24-6.173 92.1-27.935zM347.43 429.714c-.834-68.675.57-137.762-8.033-205.994-31.078-6.684-67.344 26.373-95.08 44.692-40.058 23.584-43.666 72.94-44.25 114.543 1.273 37.283-.658 98.698 50.88 97.825 46.974 22.877 62.174 78.165 61.354 126.46-3.268 25.214 27.122 47.895 26.017 9.768 8.92-61.92 8.55-124.862 9.113-187.295zm201.14-16.154c-1.78-68.913 4.125-138.78-7.78-206.968-14.236-41.88-70.59-28.006-104.806-26.828-49.603-3.264-63.456 46.815-61.338 86.898C369.09 391.03 367.934 515.555 364.588 640H548.57V413.56zm54.86 172.89c-.133-51.002 33.92-110.826 90.053-112.106 31.144-31.936 17.602-85.673 16.584-126.783-5.795-62.327-62.12-98.677-111.225-127.452-9.67-2.43-32.078-27.733-31.985-12.633 1.46 130.884-4.366 262.096 6.882 392.657-3.89 25.99 18.786 59.816 26.554 16.204 2.23-9.797 3.12-19.855 3.134-29.887z"/></svg>