<svg xmlns="http://www.w3.org/2000/svg" width="924" height="1024" viewBox="0 0 924 1024"><path d="M333.087 1002.502C189.207 970.174 61.54 859.8 25.807 714.27c-28.55-112.78-12.602-236.2 44.07-337.882 25.253-44.574 25.202-96.494 40.865-143.437 16.426-43.28 72.565-60.955 73.956-111.507 6.71-39.04-26.522-137.054 45.245-118.055 67.082 22.516 133.37 52.615 189.41 96.268 36.763 31.654 93.556 13.38 137.993 10.586 39.887 3.144 106.412-57.54 118.82 7.62 14.226 58.393 95.906 45.95 112.907 107.826 18.807 43.56 18.818 94.93 52.145 132.808 129.026 179.26 84.354 462.847-102.892 584.558-93.57 55.933-206.015 71.498-313.448 70.8-30.847-.937-61.763-4.022-91.79-11.352zm248.785-60.445c97.833-19.612 192.596-78.24 231.806-173.415 45.026-106.798 64.587-239.963-2.93-341.77-21.03-50.12-73.867-65.738-117.887-34.113-94.97 31.568-197.436 28.91-296.32 26.538-70.185-3.144-140.843-12.082-206.558-38.12-63.53-27.388-84.33 60.267-103.586 102.502-41.068 115.648-10.92 249.415 70.755 340.02 49.42 59.428 115.946 108.398 194.028 119.438 47.642 15.642 97.887 23.187 147.73 14.287 27.91-3.603 55.55-9.07 82.966-15.367zm-94.98-63.626c27.39-41.35 88.545-20.92 125.28-51.44 71.426-37.492 131.43-103.734 141.866-186.19 17.687-47.84-4.882-108.448 24.668-150.055 36.668 29.822 21.57 89.127 19.107 131.31-9.537 81.678-47.975 161.046-115.507 209.93-52.292 37.27-113.745 73.14-179.91 70.765-12.312-.944-20.995-12.433-15.504-24.32zm190.755-548.8c45.676-9.67 93.348-72.408 35.447-102.618-24.104-21.21-58.595-24.16-54.79 16.866-26.838 42.31-68.717 80.25-118.112 92.257-34.55-16.125-34.615-66.233-42.482-100.14l-10.13-65.328c-3.966 51.794 2.642 106.595-19.18 155.074-45.21 19.947-97.758-9.745-141.604-25.1-48.466-13.328-75.714-64.96-125.962-71.51-62.973-.684-39.585 81.916 8.38 89.805 94.973 41.02 201.184 50.89 303.7 47.693 56.446-3.3 112.36-15.623 164.733-36.997zm-255.4-147.478c-34.558-58.265-94.16-97.845-152.395-129.947-27.828-21.71-61.082-9.734-45.046 29.198 13.447 66.844 32.92 145.77 99.834 178.49 31.55 17.608 111.917 49.223 114.666-9.247-1.792-23.564-8.264-46.636-17.06-68.494zM597.2 256c20.906-35.678 35.867-79.375 31.454-120.774-47.47-1.428-81.13 55.416-85.463 99.43-13.566 46.173 30.37 60.038 54.01 21.344z"/></svg>