<svg xmlns="http://www.w3.org/2000/svg" width="1069" height="1024" viewBox="0 0 1069 1024"><path d="M48.402 972.478C-5.688 919.156 5.827 837.18 1.04 768.018c-.007-148.222-5.363-296.845 5.057-444.805 1.263-77.428 73.436-138 148.12-140.77 96.717-11.092 195.482 4.714 291.336-13.5 35.84-25.663 20.296-90.16 67.417-114.915 62.55-57.734 163.365-73.378 235.173-23.23 41.138 25.63 77.67 68.325 76.45 119.323 29.9 50.548 104.033 12.055 148.23 44.486 56.7 26.13 91.14 85.927 90.58 147.707 8.352 150.49 4.607 301.418 4.734 452.077-3.324 68.236-1.28 155.103-67.51 195.107-81.293 39.76-175.31 30.9-263.213 34.607-192.384-1.72-385.017 4.156-577.214-5.79-41.21-2.748-85.19-10.615-111.8-45.837zm920.958-47.64c58.06-47.618 51.117-127.78 53.92-195.175-.89-122.282 6.23-245.282-7.104-367.054-11.91-75.472-85.84-131.764-159.306-139.752-59.248 12.807-86.34-39.02-100.12-86.346-26.63-41.273-70.01-87.136-122.51-84.41-60.99 22.074-107.436 76.893-121.174 139.99-30.674 42.598-93.503 25.03-138.997 30.42-76.998 3.564-158.48-9.74-231.423 20.425C90.7 273.502 48.294 326.59 48.964 389.4c-7.236 133.718-5.453 267.944-1.607 401.762-.033 51.623 14.504 105.394 56.72 138.562 51.075 56.057 133.72 43.465 201.907 48.592 178.97.895 358.124 4.19 536.977-3.215 46.983-1.98 95.256-11.566 126.4-50.262zM111.304 601.043c1.722-93.546-4.288-187.888 8.804-280.76 12.087-61.594 92.22-21.515 75.826 30.738 7.547 151.094 4.28 302.606 2.627 453.827-2.964 39.215 5.582 121.77-56.822 106.63-40.225-29.237-23.073-92.1-29.44-136.522-1.07-57.964-.947-115.942-.995-173.913zm66.783 0c-1.722-92.647 1.813-186.493-15.12-277.946-26.205-25.825-20.69 75.738-25.393 96.952-5.326 146.253-8.333 293.404 7.018 439.134 1.783 52.117 27.835 18.997 24.297-13.36 8.575-81.25 8.758-163.168 9.196-244.782zM431.86 792.487c-42.457-38.494-77.423-89.89-75.084-149.575-3.44-63.897-1.15-135.91 48.56-183.18 44.738-49.084 97.138-104.036 169.198-102.585 65.952-3.796 140.997-3.364 190.083 48.188C813.7 450.073 868.652 502.473 867.2 574.533c3.797 65.952 3.365 140.997-48.187 190.083C774.275 813.7 721.875 868.65 649.815 867.2c-65.952 3.796-140.997 3.364-190.083-48.188-9.592-8.518-18.797-17.46-27.87-26.525zm317.458-2.945c55.192-45.188 87.822-118.578 87.925-189.51-16.617-98.913-91.376-194.413-195.2-208.34-104.447-18.89-211.53 52.698-240.106 153.788-36.88 98.32 11.245 217.306 106.234 262.052 76.025 39.64 170.907 29.163 241.15-17.99zM504.32 716.16c-47.814-58.49-49.474-156.31 3.868-211.84 58.49-47.814 156.31-49.474 211.84 3.868 47.814 58.49 49.474 156.31-3.868 211.84-57.884 47.647-156.945 49.515-211.84-3.868zm206.563-56.15c26.698-58.855-2.723-139.45-69.136-153.866-61.954-20.364-130.143 22.52-136.11 88.323-16.18 57.162 24.072 119.113 83.758 124.125 46.85 8.005 104.056-10.497 121.488-58.583zM565.74 259.04c-11.817-46.29-20.552-134.9 48.5-135.506 55.733-12 129.628 3.15 109.238 76.814 17.07 64.564-42.31 94.27-97.69 86.13-22.012-.316-50.822-3.815-60.05-27.437zm124.347-58.692c5.16-63.113-100.43-55.578-106.824-2.204-1.428 63.125 104.75 63.696 106.824 2.204z"/></svg>