<svg xmlns="http://www.w3.org/2000/svg" width="1061" height="1024" viewBox="0 0 1061 1024"><path d="M340.166 931.583c-81.794-32.233-140.59-110.308-148.984-197.82-11.135-57.845 3.52-118.508-13.378-175.126-31.794-40.327-96.092-36.58-127.29-80.78-48.782-47.78-62.68-133.274-14.472-186.31 47.633-20.216 99.867 19.47 151.072 12.186 112.122 2.988 240.248-43.45 289.213-151.698C491.677 99.95 511.74 39.992 567.385 18.58c85.617-31.09 181.986-20.526 267.58 5.275 72.293 23.04 147.337 72.817 159.622 153.55 12.555 65.074 22.474 138.483-9.225 199.678-10.5 55.342 30.98 103.23 32.45 157.864 7.944 90.114 7.84 183.22-16.407 270.974-28.98 98.536-134.866 149.053-230.706 156.556-132.147 11.943-267.463 10.473-397.237-19.36-11.334-3.107-22.567-6.7-33.298-11.533zm516.27-53.056c56.81-27.994 102.855-81.288 108.303-146.27 16.34-107.368-.292-220.45-53.087-315.888-9.22-10.836-11.397-40.27-25.163-39.105-54.4 24.94-111.607 44.65-172.055 46.525-107.656 6.933-218.975 2.18-320.11-38.884-50.515-28.036-95.42 12.373-109.698 60.22-54.343 110.8-65.8 249.583-8.622 361.54 37.937 75.47 127.985 95.266 204.167 106.815 123.114 14.844 253.263 14.396 369.996-32.04l6.268-2.913zM585.78 855.315c35.844-35.143 98.405-31.618 145.007-49.413 47.948-11.08 98.483-30.616 120.173-78.57 30.86-50.137 42.68-108.702 45.903-166.572 23.716-55.394 43.034 30.5 31.91 55.7-8.128 80.16-47.505 164.25-120.965 203.252-66.285 26.146-138.303 45.108-209.99 41.36l-7.69-2.277-4.348-3.48zM232.727 428.218c19.392-24.143 30.13-68.054-16.928-55.855-44.015 1.09-84.496-18.68-126.92-25.398-61.697 10.558-8.646 85.782 20.915 106.948 34.532 41.878 100.593 31.72 119.614-19.532l3.317-6.162zm600.342-72.185c40.724-34.09-49.327-58.63-71.61-78.218-73.795-43.693-165.267-52.94-245.832-22.974-48.015 19.384-111.124 31.686-139.938 76.782 41.198 29.098 94.07 39.3 143.065 49.89 101.045 15.975 209.858 20.08 305.697-20.978l8.617-4.5zm119.802-94.167c5.293-87.334-59.84-164.29-140.926-188.997-71.057-21.608-154.02-33.49-222.427 2.37-33.363 19.838-62.86 61.125-54.422 100.392 45.83 21.193 100.467 2.71 148.905 16.79 88.073 15.424 167.465 64.52 226.265 131.066 28.127 41.173 45.823 12.344 41.217-24.028.772-12.518 1.21-25.055 1.388-37.595z"/></svg>