<svg xmlns="http://www.w3.org/2000/svg" width="487" height="1024" viewBox="0 0 487 1024"><path d="M130.098 904.864c-36.24-34.948-80.97-68.345-96.148-118.387 4.035-67.99 20.448-134.865 32.143-201.923 16.4-89.725 39.85-178.456 49.004-269.326 7.417-39.405-48.583-25.663-52.177-63.998-19.807-47.21-32.544-99.61-27.612-150.927 12.843-44.918 66.27-55.512 106.37-61.708 74.356-7.483 151.903-9.962 223.964 12.698 33.694 9.358 61.062 41.666 53.53 77.934-4.46 50.782-13.898 104.446-43.913 146.85-19.67 10.55-48.504 13.07-34.47 45.438 32.786 143.69 84.03 282.84 111.068 427.95 4.222 36.514-26.19 65.46-44.262 94.193-41.058 51.84-83.467 105.295-139.22 142.014-35.535 12.206-65.08-27.677-93.754-43.982-15.23-11.796-30.07-24.094-44.522-36.828zm195.934-44.536c26.32-30.52 59.918-58.17 74.142-96.763-25.52-20.33-66.823 17.168-95.404 26.92-45.177 24.346-90.09 49.18-135.15 73.74 24.986 25.524 47.597 53.805 75.794 75.84 28.803-24.386 54.15-52.84 80.62-79.737zm46.963-206.37c-2.94-26.21-.545-83.278-39.522-51.002-82.31 43.77-162.86 91.682-237.96 147.016-28.055 24.017 19.638 68.21 44.206 77.314 43.573-5.264 79.975-34.032 118.88-52.51 36.2-21.627 77.945-37.303 106.574-69.277 11.282-14.784 9.143-34.19 7.82-51.54zM238.323 615.97c35.492-22.447 77.7-39.93 101.983-75.633 2.748-33.318-13.337-100.435-59.175-66.462-54.324 25.54-105.586 57.072-157.928 86.358-15.24 33.814-15.526 72.99-16.806 109.706 1.74 37.09 46.712-13.682 66.636-17.22 21.82-12.15 43.577-24.41 65.29-36.75zm-8.978-155.038c31.95-20.177 70.422-46.07 74.734-86.987-5.594-51.51-64.862-23.922-93.037-9.807-38.002 14.373-69.52 41.97-66.593 85.622-10.185 21.435-15.334 69.067 22.1 45.208 21.7-9.848 42.195-22.112 62.795-34.036zm5.67-150.375l41.968-23.99c-31.947 1.103-64.99-4.836-95.924 5.04-41.79 38.735 23.892 53.332 49.007 21.757l4.95-2.807zM359.33 182.415c3.746-33.383 22.148-90.894-30.726-91.637-69.328-13.088-142.02-13.8-211.05 1.442-47.49 5.288-24.36 61.522-23.308 92.258 3.59 22.442 7.177 44.884 10.766 67.326h243.22l11.097-69.39z"/></svg>