<?xml version="1.0" encoding="utf-8"?>
<!-- Generated by IcoMoon.io -->
<!DOCTYPE svg PUBLIC "-//W3C//DTD SVG 1.1//EN" "http://www.w3.org/Graphics/SVG/1.1/DTD/svg11.dtd">
<svg version="1.1" xmlns="http://www.w3.org/2000/svg" xmlns:xlink="http://www.w3.org/1999/xlink" width="13" height="10" viewBox="0 0 1024 1024">
<g id="icomoon-ignore">
</g>
<path fill="#fff" d="M924.746 283.591h-256.577v-63.732h256.598v63.732h-0.021zM497.36 544.934c16.555 25.643 24.828 56.778 24.828 93.331 0 37.801-9.328 71.712-28.304 101.666-12.073 19.822-27.062 36.565-45.072 50.045-20.284 15.589-44.298 26.278-71.905 31.99-27.695 5.721-57.67 8.611-89.96 8.611h-286.948v-637.151h307.707c77.561 1.262 132.549 23.733 165.019 67.865 19.484 27.066 29.138 59.544 29.138 97.295 0 38.953-9.77 70.122-29.445 93.803-10.944 13.277-27.112 25.355-48.514 36.256 32.418 11.868 57.016 30.556 73.455 56.29zM146.942 444.622h134.825c27.707 0 50.105-5.266 67.355-15.794 17.239-10.511 25.84-29.195 25.84-56.021 0-29.638-11.389-49.309-34.223-58.777-19.627-6.578-44.738-9.966-75.209-9.966h-118.588v140.557zM387.945 629.163c0-33.097-13.527-55.978-40.527-68.255-15.098-6.978-36.401-10.544-63.715-10.799h-136.76v169.797h134.644c27.662 0 49.071-3.621 64.522-11.175 27.864-13.889 41.836-40.322 41.836-79.568zM1019.943 525.509c3.1 20.846 4.502 51.090 3.933 90.622h-332.295c1.833 45.867 17.667 77.942 47.698 96.298 18.11 11.511 40.067 17.132 65.779 17.132 27.112 0 49.209-6.854 66.22-20.943 9.268-7.468 17.443-18.010 24.512-31.311h121.797c-3.19 27.090-17.855 54.566-44.21 82.487-40.832 44.379-98.097 66.631-171.642 66.631-60.756 0-114.3-18.767-160.777-56.166-46.322-37.53-69.586-98.395-69.586-182.827 0-79.175 20.886-139.777 62.798-181.958 42.067-42.26 96.357-63.294 163.277-63.294 39.665 0 75.421 7.090 107.32 21.343 31.799 14.268 58.080 36.723 78.778 67.584 18.731 27.178 30.778 58.604 36.399 94.402zM900.058 537.399c-2.233-31.716-12.823-55.721-31.89-72.126-18.91-16.451-42.534-24.709-70.722-24.709-30.678 0-54.366 8.828-71.198 26.178-16.946 17.315-27.49 40.855-31.811 70.66l205.62-0.002z"></path>
</svg>
