<?xml version="1.0" encoding="utf-8"?>
<!-- Generated by IcoMoon.io -->
<!DOCTYPE svg PUBLIC "-//W3C//DTD SVG 1.1//EN" "http://www.w3.org/Graphics/SVG/1.1/DTD/svg11.dtd">
<svg version="1.1" xmlns="http://www.w3.org/2000/svg" xmlns:xlink="http://www.w3.org/1999/xlink" width="12" height="11" viewBox="0 0 1024 1024">
<g id="icomoon-ignore">
</g>
<path fill="#fff" d="M512 0c-282.305 0-512 229.695-512 512s229.695 512 512 512 512-229.695 512-512-229.697-512-512-512zM850.495 236.097c60.928 74.432 97.728 169.216 98.689 272.448-14.464-3.073-158.912-32.384-304.512-14.080l-9.408-22.592c-9.088-21.313-18.816-42.497-28.991-63.361 161.727-65.984 235.007-159.937 244.222-172.416zM512 75.328c111.103 0 212.672 41.663 289.856 110.207-7.807 11.2-73.6 99.647-229.119 157.952-71.679-131.649-151.103-239.808-163.199-256 32.894-7.934 67.199-12.159 102.462-12.159zM326.080 116.864c11.52 15.807 89.663 124.095 162.112 252.927-204.544 54.335-384.703 53.568-404.288 53.312 28.351-135.745 119.808-248.511 242.176-306.239zM74.623 512.64l0.191-13.377c19.136 0.447 231.105 3.135 449.409-62.209 12.608 24.513 24.513 49.408 35.519 74.241l-17.279 5.183c-225.473 72.895-345.472 271.681-355.456 288.575-69.758-77.503-112.319-180.030-112.384-292.413zM511.936 949.951c-101.057 0-194.24-34.432-268.416-92.287 7.872-16.001 96.448-187.136 343.104-273.088l2.88-0.961c61.44 159.488 86.719 293.247 93.312 331.648-52.416 22.336-110.207 34.752-170.879 34.688zM756.351 875.199c-4.48-26.625-27.839-154.623-84.927-311.807 137.023-21.951 257.408 14.015 272.383 18.751-19.583 121.601-89.279 226.753-187.456 293.056z"></path>
</svg>
