<?xml version="1.0" encoding="utf-8"?>
<!-- Generated by IcoMoon.io -->
<!DOCTYPE svg PUBLIC "-//W3C//DTD SVG 1.1//EN" "http://www.w3.org/Graphics/SVG/1.1/DTD/svg11.dtd">
<svg version="1.1" xmlns="http://www.w3.org/2000/svg" xmlns:xlink="http://www.w3.org/1999/xlink" width="7" height="13" viewBox="0 0 1024 1024">
<g id="icomoon-ignore">
</g>
<path fill="#fff" d="M767.965 0.213l-132.79-0.213c-149.185 0-245.595 98.913-245.595 252.008v116.192h-133.514c-11.537 0-20.88 9.353-20.88 20.891v168.35c0 11.537 9.353 20.88 20.88 20.88h133.514v424.8c0 11.537 9.343 20.88 20.88 20.88h174.198c11.537 0 20.88-9.353 20.88-20.88v-424.8h156.109c11.537 0 20.88-9.343 20.88-20.88l0.064-168.35c0-5.54-2.205-10.845-6.115-14.765s-9.236-6.125-14.776-6.125h-156.163v-98.498c0-47.342 11.282-71.375 72.952-71.375l89.453-0.032c11.527 0 20.869-9.353 20.869-20.88v-156.322c0-11.516-9.332-20.859-20.848-20.88z"></path>
</svg>
