<?xml version="1.0" encoding="utf-8"?>
<!-- Generated by IcoMoon.io -->
<!DOCTYPE svg PUBLIC "-//W3C//DTD SVG 1.1//EN" "http://www.w3.org/Graphics/SVG/1.1/DTD/svg11.dtd">
<svg version="1.1" xmlns="http://www.w3.org/2000/svg" xmlns:xlink="http://www.w3.org/1999/xlink" width="11" height="11" viewBox="0 0 1024 1024">
<g id="icomoon-ignore">
</g>
<path fill="#fff" d="M662.21 0h-244.211c-108.823 0-184.152 23.858-251.952 79.867-53.322 46.004-85.144 112.862-85.144 178.854 0 101.673 77.519 209.724 221.167 209.724 13.812 0 29.104-1.417 42.598-2.676l-1.988 4.833c-5.774 13.833-11.242 26.883-11.242 47.252 0 39.658 19.131 64.12 37.628 87.756l2.327 2.993-4.135 0.286c-59.318 4.061-169.727 11.633-250.376 61.201-95.254 56.632-102.657 139.016-102.657 162.906 0 95.053 88.581 190.995 286.492 190.995 230.124 0 350.538-126.96 350.538-252.365 0.021-92.758-54.369-138.55-112.101-187.166l-48.7-37.882c-15.049-12.469-33.789-27.983-33.789-56.727 0-28.258 18.74-46.913 35.28-63.369l1.724-1.745c52.592-41.424 112.196-88.391 112.196-189.979 0-102.139-63.824-154.921-94.514-180.292h81.041c0.994 0 1.988-0.275 2.813-0.814l69.809-43.889c1.988-1.258 2.919-3.68 2.263-5.943-0.624-2.263-2.718-3.818-5.066-3.818zM366.063 968.034c-140.274 0-234.524-65.516-234.524-163.033 0-63.675 38.548-109.944 114.47-137.451 60.799-20.464 139.28-21.479 140.063-21.479 13.293 0 19.977 0 30.595 1.333 98.152 69.852 145.34 106.528 145.34 176.379-0.011 88.983-75.097 144.251-195.944 144.251zM364.741 431.018c-117.727 0-166.586-154.752-166.586-237.612 0-42.133 9.581-74.473 29.294-98.892 21.394-26.767 58.028-44.058 93.329-44.058 108.093 0 167.866 145.287 167.866 245.702 0 15.842 0 64.035-33.292 97.507-22.388 22.346-58.8 37.353-90.611 37.353z"></path>
<path fill="#fff" d="M1004.488 478.259h-128.683v-128.229c0-2.919-2.38-5.288-5.288-5.288h-55.352c-2.919 0-5.288 2.369-5.288 5.288v128.229h-128.038c-2.919 0-5.288 2.369-5.288 5.288v56.093c0 2.908 2.369 5.288 5.288 5.288h128.038v129.054c0 2.908 2.369 5.288 5.288 5.288h55.352c2.908 0 5.288-2.38 5.288-5.288v-129.075h128.683c2.919 0 5.288-2.358 5.288-5.288v-56.072c0-2.929-2.358-5.288-5.288-5.288z"></path>
</svg>
