<?xml version="1.0" encoding="utf-8"?>
<!-- Generated by IcoMoon.io -->
<!DOCTYPE svg PUBLIC "-//W3C//DTD SVG 1.1//EN" "http://www.w3.org/Graphics/SVG/1.1/DTD/svg11.dtd">
<svg version="1.1" xmlns="http://www.w3.org/2000/svg" xmlns:xlink="http://www.w3.org/1999/xlink" width="46" height="65" viewBox="0 0 725 1024">
<g id="icomoon-ignore">
</g>
<path fill="#00bc9c" d="M240.246 1004.773c-44.136-18.851-34.252-71.204-35.446-110.131-0.139-15.353-4.985-35.412 17.461-28.18 99.205 0 198.411 0 297.616 0-1.899 37.554 5.358 76.867-7.742 112.831-29.875 41.908-88.996 39.030-135.012 42.869-45.749 0.047-93.833 0.009-136.877-17.388zM205.834 760.026c-31.571-102.042-103.934-183.3-160.209-272.102-30.808-39.63-49.184-88.668-44.197-139.301 0.224-96.827 14.907-205.559 93.802-271.867 60.099-50.863 138.529-80.745 217.781-75.966 93.381 3.257 193.874-2.375 277.39 46.598 50.71 34.203 90.713 85.111 114.497 141.222 18.027 66.807 11.65 137.455 9.499 205.835-4.221 73.739-62.236 126.299-98.346 185.98-43.905 64.418-89.435 130.724-104.993 208.504-5.309 13.218-2.44 37.107-23.118 30.271-88.725 0-177.449 0-266.174 0-5.311-19.725-10.623-39.45-15.934-59.174zM422.005 657.723c41.604-90.257 103.81-168.622 153.17-254.341 43.621-78.325 27.324-189.642-49.139-241.809-84.87-59.691-201.434-58.301-294.653-19.987-71.493 29.981-114.067 109.054-104.664 185.25 8.076 86.322 74.709 149.446 115.162 221.875 31.829 47.702 54.815 100.41 83.1 149.968 27.957 52.63 83.221 8.544 93.295-32.79l3.73-8.167z"></path>
</svg>
